PathFileType	4	(X/Y/Z)	S01_0012_Gait_markers.trc
DataRate	CameraRate	NumFrames	NumMarkers	Units	OrigDataRate	OrigDataStartFrame	OrigNumFrames
250.000000	250.000000	4	54	mm	250.000000	200	321
Frame#	Time	HEAD_ANT			R_HEAD			L_HEAD			C7			R_BACK			L_BACK			STERNUM			R_ACROMION			R_HUM_PROX			R_HUM_ANT			R_HUM_POST			R_ELBOW_LAT			R_ELBOW_MED			R_FOREARM			R_WIRST_LAT			R_WRITS_MED			R_HAND			L_ACROMION			L_HUM_PROX			L_HUM_ANT			L_HUM_POST			L_ELBOW_LAT			L_ELBOW_MED			L_FOREARM			L_WRIST_LAT			L_WIRST_MED			L_HAND			R_ILIAC			SACRUM			L_ILIAC			R_GTROCH			R_THIGH__1			R_THIGH_2			R_THIGH_3			R_THIGH_4			R_SHANK_1			R_SHANK_2			R_SHANK_3			R_SHANK_4			R_HEEL			R_FOOT_LAT			R_FOOT_MED			L_GTROCH			L_THIGH_1			L_THIGH_2			L_THIGH_3			L_THIGH_4			L_SHANK_1			L_SHANK_2			L_SHANK_3			L_SHANK_4			L_HEEL			L_FOOT_LAT			L_FOOT_MED			
		X1	Y1	Z1	X2	Y2	Z2	X3	Y3	Z3	X4	Y4	Z4	X5	Y5	Z5	X6	Y6	Z6	X7	Y7	Z7	X8	Y8	Z8	X9	Y9	Z9	X10	Y10	Z10	X11	Y11	Z11	X12	Y12	Z12	X13	Y13	Z13	X14	Y14	Z14	X15	Y15	Z15	X16	Y16	Z16	X17	Y17	Z17	X18	Y18	Z18	X19	Y19	Z19	X20	Y20	Z20	X21	Y21	Z21	X22	Y22	Z22	X23	Y23	Z23	X24	Y24	Z24	X25	Y25	Z25	X26	Y26	Z26	X27	Y27	Z27	X28	Y28	Z28	X29	Y29	Z29	X30	Y30	Z30	X31	Y31	Z31	X32	Y32	Z32	X33	Y33	Z33	X34	Y34	Z34	X35	Y35	Z35	X36	Y36	Z36	X37	Y37	Z37	X38	Y38	Z38	X39	Y39	Z39	X40	Y40	Z40	X41	Y41	Z41	X42	Y42	Z42	X43	Y43	Z43	X44	Y44	Z44	X45	Y45	Z45	X46	Y46	Z46	X47	Y47	Z47	X48	Y48	Z48	X49	Y49	Z49	X50	Y50	Z50	X51	Y51	Z51	X52	Y52	Z52	X53	Y53	Z53	X54	Y54	Z54	

201	0.8	1309.89111328125	1738.828247070312	-365.6009521484371	1252.55322265625	1689.367553710938	-284.4009399414059	1252.964477539062	1684.273315429688	-432.6157531738277	1116.69189453125	1514.031494140625	-349.4933776855465	1046.3017578125	1321.576416015625	-271.6780700683591	1044.30908203125	1320.219970703125	-415.9821472167966	1299.129516601562	1353.431274414062	-352.249328613281	1200.753051757812	1470.034545898438	-179.2391052246091	1171.28076171875	1311.872802734375	-84.85221099853487	1232.721801757812	1226.110961914062	-87.89880371093723	1112.794555664062	1228.131225585938	-66.87464141845676	1160.053344726562	1121.319213867188	-66.27365112304662	1136.8701171875	1115.55126953125	-143.5358276367185	1269.558227539062	941.8265380859375	-76.74465179443338	1306.677612304688	880.3566284179688	-119.2933502197264	1244.902709960938	851.156494140625	-76.01355743408185	1320.521850585938	789.107177734375	-72.80421447753889	1194.27978515625	1466.131469726563	-517.3851318359372	1163.848510742188	1299.2607421875	-609.9170532226559	1221.465698242188	1215.301025390625	-610.204406738281	1100.119750976562	1225.0771484375	-633.0492553710935	1153.093627929688	1115.8359375	-638.8261108398435	1094.810791015625	1115.215698242188	-580.034484863281	1244.471557617188	935.0574951171876	-628.2801513671873	1270.739868164062	872.1879272460939	-576.2729492187498	1225.987548828125	853.9908447265626	-639.5860595703123	1299.2529296875	792.0532226562501	-625.0228271484373	1187.527465820312	1061.559936523438	-176.5948333740232	1064.100463867188	1033.353271484375	-352.4146728515623	1193.191162109375	1061.427368164063	-522.656311035156	1131.453002929688	913.0913696289062	-165.6904449462889	1164.912475585938	635.7540283203125	-173.3162689208983	1221.544189453125	651.1322021484375	-164.2249450683592	1225.331787109375	545.8475341796875	-186.1031646728514	1160.5869140625	554.6029052734375	-186.0439147949218	1033.8310546875	411.6397399902344	-182.1813049316405	1053.952758789062	355.7627563476563	-191.3017272949218	987.6708374023438	303.5530090332032	-208.4308471679687	951.3250122070312	356.9105224609376	-202.6373901367187	776.7445678710938	256.9682006835938	-294.9122009277343	824.2540893554688	112.4335021972657	-196.0418853759765	872.0796508789062	72.41830444335943	-276.1286926269531	1172.122802734375	951.0427246093751	-529.5878295898435	1325.611328125	681.5076904296876	-498.0302734374998	1271.631225585938	687.1744384765626	-521.3433837890624	1276.083374023438	585.3781127929689	-487.1526489257811	1336.546630859375	604.1285400390626	-471.4088745117186	1310.747436523438	323.154266357422	-462.2394409179687	1253.127197265625	305.560028076172	-471.0025939941406	1241.897583007812	221.3067321777345	-452.4326782226562	1304.199340820312	223.4696502685548	-435.8135375976562	1177.808959960938	42.10446548461923	-378.030517578125	1355.346557617188	20.86984825134287	-444.2179565429688	1389.483154296875	26.17153549194343	-334.0400390625	
202	0.804	1315.70263671875	1739.855834960938	-365.8609008789059	1258.177978515625	1690.479125976562	-284.6309204101559	1258.808837890625	1685.284057617188	-432.8590698242184	1122.470581054688	1515.061279296875	-349.9766235351559	1052.088623046875	1322.436401367188	-272.7201843261716	1050.229858398438	1321.044189453125	-416.3951721191403	1304.777465820312	1354.663818359375	-352.2735900878903	1206.114990234375	1471.191162109375	-179.5054931640622	1176.448608398438	1312.990478515625	-85.2080307006833	1237.787353515625	1227.182495117188	-88.19112396240207	1118.1640625	1229.303344726562	-67.13800811767551	1164.766479492188	1122.401245117188	-66.40528106689428	1140.538208007812	1116.86669921875	-143.5430755615232	1273.713012695312	942.7959594726562	-76.67220306396463	1310.267578125	880.9028930664062	-119.2901306152342	1248.540771484375	852.1270141601562	-75.55529022216778	1323.78271484375	789.3766479492188	-72.85813903808577	1200.14404296875	1467.35693359375	-517.6503906249997	1170.196411132812	1300.298461914063	-610.2330322265622	1228.024169921875	1216.399536132813	-610.4325561523435	1106.702514648438	1226.081787109375	-633.8708496093748	1160.13427734375	1117.057739257813	-639.3075561523435	1101.308715820312	1116.203369140625	-580.9790039062498	1251.839599609375	936.5154418945314	-628.199279785156	1277.952270507812	873.5726318359376	-576.2471923828123	1233.603759765625	855.2495727539064	-639.5277709960935	1306.995971679688	793.7384033203126	-624.7357788085935	1192.593872070312	1062.112915039062	-176.6659240722654	1069.83740234375	1034.511840820312	-352.8209228515623	1198.984130859375	1062.470825195313	-522.7393798828123	1137.51025390625	914.0045776367188	-166.2008361816404	1174.274780273438	636.7745971679688	-173.5941467285155	1230.3115234375	652.5512084960938	-163.7335205078124	1235.284057617188	547.1536254882812	-186.2251434326171	1170.484985351562	555.2557983398438	-186.2723693847655	1044.13818359375	412.8746337890626	-182.9537506103515	1064.414184570312	356.9151000976563	-191.2828063964843	998.2623901367188	304.4445800781251	-208.5931243896484	961.9950561523438	357.5199279785157	-203.8383026123046	787.6840209960938	256.1864624023438	-295.6505432128906	837.3796997070312	112.8899230957032	-196.0643310546875	885.631103515625	73.06973266601568	-276.1856384277344	1177.262329101562	951.8239135742189	-529.9802246093748	1328.822143554688	681.2271118164064	-498.3560791015623	1274.780517578125	687.4453735351564	-521.6431274414061	1279.366088867188	586.0273437500001	-486.8494567871093	1339.0615234375	603.7421264648439	-471.8957214355468	1311.700561523438	322.8592529296876	-462.2840270996093	1254.251342773438	305.5445251464845	-471.1294555664062	1242.5283203125	221.3701934814454	-452.6237792968749	1304.8583984375	223.3259887695313	-435.9003295898437	1177.867065429688	42.27754592895516	-378.1025695800781	1355.34228515625	20.83331108093272	-444.3524475097656	1389.48095703125	26.178020477295	-334.0953674316406	
203	0.8080000000000001	1321.436645507812	1740.815063476562	-366.1033935546871	1263.922607421875	1691.37548828125	-284.9256591796871	1264.519775390625	1686.357177734375	-433.1617431640621	1128.095947265625	1516.334838867188	-350.4707336425778	1057.769653320312	1323.155151367188	-273.4039306640622	1056.0830078125	1321.986694335938	-416.7491760253903	1310.489379882812	1355.680053710938	-352.283508300781	1211.51806640625	1472.33544921875	-179.7857818603512	1181.528198242188	1314.1640625	-85.60862731933564	1242.767333984375	1228.276733398438	-88.47625732421848	1123.275390625	1230.458984375	-67.39748382568332	1169.611938476562	1123.608032226562	-66.56913757324193	1144.298095703125	1118.411254882812	-143.7225799560544	1277.870361328125	943.5843505859375	-76.59667205810526	1313.844482421875	881.4158935546875	-119.2973098754881	1252.23193359375	853.1537475585938	-75.07063293457013	1327.047607421875	789.857666015625	-72.98847961425764	1205.893676757812	1468.372802734375	-517.9575805664059	1176.596923828125	1301.386596679688	-610.4544067382809	1234.496704101562	1217.630981445313	-610.7749023437498	1113.128173828125	1227.0947265625	-634.7374877929685	1167.185180664062	1118.100341796875	-639.7855834960935	1107.557250976562	1117.257446289063	-581.5701904296873	1259.283935546875	937.8728027343751	-628.0800170898435	1285.1552734375	875.0330810546876	-575.9559326171873	1241.101928710938	856.5458984375001	-639.4791870117185	1314.765869140625	795.2896118164064	-624.452453613281	1197.441284179688	1063.038696289062	-176.168746948242	1075.531005859375	1035.699462890625	-353.1739807128904	1204.526123046875	1063.554565429688	-522.791320800781	1143.710571289062	914.8978271484375	-166.718795776367	1183.513793945312	637.6111450195312	-173.8499755859374	1239.506591796875	653.6744995117188	-163.9965057373045	1245.21484375	548.3197021484375	-186.470733642578	1180.302490234375	555.9676513671875	-186.4195709228514	1054.587158203125	413.7307128906251	-183.9305114746093	1074.941772460938	357.9843139648438	-191.4683074951171	1009.136596679688	305.2286376953126	-208.6334533691406	972.6767578125	358.1822204589844	-204.6319580078124	798.6361083984375	255.3070831298829	-296.1375122070312	850.6299438476562	112.9626846313477	-196.3810577392578	899.36083984375	73.81830596923834	-276.2834167480469	1182.565307617188	952.7291259765626	-530.2888183593748	1331.88134765625	680.9404296875001	-498.8910522460936	1277.94970703125	687.5995483398439	-521.8468017578124	1281.292724609375	586.1909179687501	-486.8728942871093	1341.560791015625	603.0864257812501	-471.7843017578124	1312.85546875	322.7035522460939	-462.4770507812499	1255.411987304688	305.5208129882814	-471.1503906249999	1243.250244140625	221.3493804931642	-452.6951904296874	1305.668212890625	223.2744140625001	-435.9646911621093	1177.871826171875	42.47370529174813	-378.0790710449219	1355.362548828125	20.80677604675303	-444.4041748046875	1389.489501953125	26.20460128784187	-334.1343078613281	
204	0.8120000000000001	1327.2998046875	1741.864013671875	-366.3639831542965	1269.556884765625	1692.566284179688	-285.2674560546871	1270.095336914062	1687.489379882812	-433.4530944824215	1133.764892578125	1517.1787109375	-350.7700195312497	1063.292358398438	1323.94775390625	-274.5370788574216	1061.809936523438	1322.874267578125	-417.1850280761716	1316.230590820312	1356.753173828125	-352.3592224121091	1216.828125	1473.4345703125	-179.9266357421872	1186.592651367188	1315.247924804688	-86.01858520507783	1247.744750976562	1229.415405273438	-88.67496490478489	1128.411743164062	1231.725463867188	-67.62910461425754	1174.406005859375	1124.884521484375	-66.71450042724584	1149.212036132812	1119.59521484375	-143.9502868652341	1281.864990234375	944.4237060546875	-76.65462493896463	1317.43408203125	881.883056640625	-119.4066314697264	1255.768798828125	853.8917846679688	-74.68194580078107	1330.40966796875	790.2699584960938	-72.89582824707014	1211.783813476562	1469.458251953125	-518.2595825195309	1182.838745117188	1302.5810546875	-610.9078979492184	1241.05078125	1219.123046875	-611.7572631835935	1119.56689453125	1228.041259765625	-634.8680419921873	1173.719360351562	1119.247436523438	-640.3668823242185	1114.016845703125	1118.215698242188	-582.5079345703123	1266.5400390625	939.2460327148439	-628.0900268554685	1292.5322265625	876.6191406250001	-575.5646362304685	1248.693969726562	857.8731689453126	-639.349914550781	1322.588745117188	797.0463867187501	-624.1638183593748	1202.618408203125	1063.908813476562	-177.0203857421873	1081.311767578125	1036.841918945312	-353.5328674316404	1210.31884765625	1064.746826171875	-523.0330810546873	1149.804931640625	915.9108276367188	-167.1048583984373	1192.682006835938	638.5438842773438	-173.8025970458983	1248.615844726562	654.968505859375	-163.9777832031249	1255.22802734375	549.593505859375	-186.4359283447264	1190.255004882812	556.6444702148438	-186.5757446289061	1065.002563476562	414.8510437011719	-184.6586761474609	1085.482666015625	358.8905334472657	-192.0164489746093	1019.947448730469	305.7307128906251	-209.1537017822265	983.3759765625	358.8118286132813	-205.9206542968749	809.7893676757812	254.0916442871094	-296.8042297363281	864.2264404296875	112.8598709106446	-196.6639099121093	913.3134765625	74.02816772460943	-276.6495666503906	1187.626708984375	953.4987792968751	-530.4583740234373	1334.902954101562	680.6168823242189	-499.1859130859373	1280.95166015625	687.7796630859376	-522.1413574218749	1283.589965820312	586.5423583984376	-487.2539062499999	1343.772705078125	602.6509399414064	-472.4076843261718	1314.019409179688	322.6503295898439	-462.7964172363281	1256.291625976562	305.7291259765626	-471.3668518066406	1244.0927734375	221.4777679443361	-452.7728271484374	1306.324951171875	223.1247711181641	-436.0962219238281	1177.908325195312	42.64257812500009	-378.1578063964844	1355.390380859375	20.81833648681651	-444.4750671386719	1389.509765625	26.20159339904793	-334.2069091796875	
